<svg width="64" height="64" viewBox="0 0 64 64" fill="none" xmlns="http://www.w3.org/2000/svg">
  <rect width="64" height="64" rx="16" fill="#FFF6ED"/>
  <path d="M24 12L18 15L12 23L16 28L21 25V47C21 49.2091 22.7909 51 25 51H39C41.2091 51 43 49.2091 43 47V25L48 28L52 23L46 15L40 12C38.6667 14.6667 36 16 32 16C28 16 25.3333 14.6667 24 12Z" fill="#F97316" stroke="#7C2D12" stroke-width="2.5" stroke-linejoin="round"/>
  <path d="M26 18C27.6 20 29.6 21 32 21C34.4 21 36.4 20 38 18" stroke="#7C2D12" stroke-width="2.5" stroke-linecap="round"/>
  <rect x="23" y="26" width="18" height="14" rx="3" fill="#FFF6ED" stroke="#7C2D12" stroke-width="2"/>
  <path d="M27 30H37" stroke="#7C2D12" stroke-width="2" stroke-linecap="round"/>
  <path d="M27 34H34" stroke="#7C2D12" stroke-width="2" stroke-linecap="round"/>
  <circle cx="45" cy="42" r="7" fill="#FDBA74" stroke="#7C2D12" stroke-width="2"/>
  <path d="M45 38V46" stroke="#7C2D12" stroke-width="2" stroke-linecap="round"/>
  <path d="M41 42H49" stroke="#7C2D12" stroke-width="2" stroke-linecap="round"/>
</svg>